<?xml version="1.0" encoding="UTF-8" standalone="no"?>
<svg
   version="1.1"
   id="Layer_1"
   x="0px"
   y="0px"
   width="600"
   viewBox="-5 -17 600 600"
   enable-background="new 0 0 1024 1024"
   xml:space="preserve"
   sodipodi:docname="pifire_logo.svg"
   inkscape:version="1.3.2 (091e20ef0f, 2023-11-25)"
   height="600"
   inkscape:export-filename="flame-icon.svg"
   inkscape:export-xdpi="96"
   inkscape:export-ydpi="96"
   xmlns:inkscape="http://www.inkscape.org/namespaces/inkscape"
   xmlns:sodipodi="http://sodipodi.sourceforge.net/DTD/sodipodi-0.dtd"
   xmlns:xlink="http://www.w3.org/1999/xlink"
   xmlns="http://www.w3.org/2000/svg"
   xmlns:svg="http://www.w3.org/2000/svg"><defs
   id="defs88"><linearGradient
     id="linearGradient91"
     inkscape:collect="always"><stop
       style="stop-color:#f39b0b;stop-opacity:1;"
       offset="0"
       id="stop91" /><stop
       style="stop-color:#fb541a;stop-opacity:1;"
       offset="1"
       id="stop92" /></linearGradient><linearGradient
     id="linearGradient89"
     inkscape:collect="always"><stop
       style="stop-color:#000000;stop-opacity:0.00018311;"
       offset="0.58885175"
       id="stop89" /><stop
       style="stop-color:#000000;stop-opacity:0;"
       offset="1"
       id="stop90" /></linearGradient><linearGradient
     inkscape:collect="always"
     xlink:href="#linearGradient89"
     id="linearGradient90"
     x1="569.87762"
     y1="634.58325"
     x2="535.83386"
     y2="326.26764"
     gradientUnits="userSpaceOnUse"
     gradientTransform="translate(-216.88493,-198.62519)" /><linearGradient
     inkscape:collect="always"
     xlink:href="#linearGradient91"
     id="linearGradient92"
     x1="548.91205"
     y1="296.40601"
     x2="659.38477"
     y2="650.33789"
     gradientUnits="userSpaceOnUse"
     gradientTransform="translate(-216.88493,-198.62519)" /></defs><sodipodi:namedview
   id="namedview88"
   pagecolor="#ffffff"
   bordercolor="#000000"
   borderopacity="0.25"
   inkscape:showpageshadow="2"
   inkscape:pageopacity="0.0"
   inkscape:pagecheckerboard="0"
   inkscape:deskcolor="#d1d1d1"
   inkscape:zoom="0.5447812"
   inkscape:cx="209.25832"
   inkscape:cy="223.02532"
   inkscape:window-width="1500"
   inkscape:window-height="867"
   inkscape:window-x="0"
   inkscape:window-y="32"
   inkscape:window-maximized="1"
   inkscape:current-layer="Layer_1" />

<rect
   style="display:inline;fill:#303030;fill-opacity:1;stroke:#000000;stroke-width:2.49269;stroke-opacity:0"
   id="rect88"
   width="597.50732"
   height="597.50732"
   x="-3.753655"
   y="-15.753654"
   ry="97.643272"
   inkscape:label="bg_rectangle" />






















































































<path
   style="display:inline;fill:url(#linearGradient92);stroke:url(#linearGradient90);stroke-width:3;stroke-opacity:0.000183105"
   d="m 65.598397,337.62457 c 20.74812,0.0867 22.17147,-10.55602 25.66758,-27.66046 1.34121,-22.63333 10.764673,-13.04755 13.933213,-36.78316 2.98903,-22.39082 21.23281,-63.10438 62.96071,-98.25945 41.72791,-35.15507 97.18321,-59.95468 109.71426,-80.872573 11.33793,-18.92623 21.20221,-26.51677 10.05735,-58.583281 -11.14487,-32.0665018 -30.51952,-41.5525418 -3.83912,-36.5751818 31.41779,5.86114 55.59373,33.2591958 55.59373,33.2591958 0,0 38.19287,32.005207 19.32048,99.86341 -6.34947,22.83037 -11.91019,26.37745 -13.39424,28.2369 -5.15506,6.45906 -12.20433,14.46437 -6.72617,31.39528 2.04021,6.30553 7.64996,12.81881 19.37364,16.11861 5.77801,1.6263 12.90582,-0.29002 16.6506,-2.37183 5.54033,-3.07998 8.73706,-8.03295 10.92613,-12.81531 3.38203,-7.38854 4.01937,-13.40981 0.64518,-25.26473 -2.48195,-8.72011 -13.43103,-22.9123 -0.4033,-20.58052 26.18759,4.68722 30.70084,16.98358 51.47924,24.28401 17.08428,6.00251 22.3487,27.06767 37.89806,55.39476 8.42499,15.34826 12.90763,42.41294 15.55885,54.83318 4.24486,19.88604 11.07714,38.85909 11.07714,38.85909 0,0 -13.05359,4.6019 0.61942,4.00798 7.51259,-0.32632 15.82234,9.01652 26.50745,8.9985 9.29526,-0.0157 -4.7321,20.68047 -10.11894,36.61492 -14.51866,42.94673 -63.01234,116.56184 -79.25419,118.63195 -12.46145,1.58828 -40.50168,37.52733 -74.06964,45.07101 -32.93455,7.40134 -50.77952,19.32884 -140.849,2.01104 C 208.8466,532.34614 151.64197,513.7358 121.41913,475.33927 77.187777,419.14566 59.927357,337.27171 59.927357,337.27171"
   id="path89"
   sodipodi:nodetypes="ccssssscssssssssssscsssssssc"
   inkscape:label="fire" /><rect
   style="fill:none;fill-opacity:0;stroke:#303030;stroke-width:28.0798;stroke-linecap:round;stroke-dasharray:none;stroke-opacity:1"
   id="rect93-5"
   width="10.319572"
   height="4.8684683"
   x="515.54462"
   y="316.93716"
   ry="0"
   inkscape:label="r_black_rectangle" /><rect
   style="fill:#000000;fill-opacity:0;stroke:#303030;stroke-width:28.0798;stroke-linecap:round;stroke-dasharray:none;stroke-opacity:1"
   id="rect93"
   width="10.319572"
   height="4.8684683"
   x="61.626144"
   y="319.98227"
   ry="0"
   inkscape:label="l_black_rectangle" /><path
   fill="#fdfcf9"
   opacity="1"
   stroke="none"
   d="m 400.12546,419.48364 c 11.27356,-4.90137 18.38513,-13.86396 23.73559,-24.47687 2.24066,-4.44458 4.21936,-9.02136 6.3147,-13.53919 1.4917,-3.21606 3.46094,-5.88543 7.53546,-5.11804 3.6131,0.6806 5.73572,2.90094 6.25269,6.69757 5.1676,37.94647 -16.33777,78.01428 -55.12244,84.80817 -20.52759,3.59582 -39.30658,-1.46588 -54.87592,-16.12335 -1.30456,-1.22815 -2.73394,-2.3238 -4.47161,-3.46259 -0.3664,0.0184 -0.31958,-0.0129 -0.40601,-0.34094 -1.67987,-2.10315 -3.27325,-3.87836 -4.91205,-6.01526 -6.23504,-11.17401 -11.86401,-22.22296 -14.49872,-34.93781 -0.94897,-12.78234 -1.8695,-25.17425 -2.65393,-37.96484 3.21277,-27.28015 6.28937,-54.16168 9.41284,-81.4527 -15.23944,0 -30.44128,0 -45.1091,0 -3.83044,21.12717 -7.33926,41.84705 -11.38531,62.46149 -5.43829,27.70807 -13.86996,54.453 -28.92343,78.57886 -8.83618,14.16162 -20.08866,26.21399 -35.7887,33.08801 -11.02774,4.82831 -22.09073,5.67035 -32.89703,-1.51154 -11.58551,-10.11944 -11.24878,-24.69708 0.96295,-33.4237 17.01083,-12.15613 29.5806,-28.05109 40.11795,-46.22974 14.68674,-29.46692 23.20599,-60.3501 26.8605,-93.03653 -19.99121,-1.46582 -36.21133,4.67096 -48.48223,19.55844 -4.36972,5.30152 -7.20154,11.87873 -10.6774,17.90699 -4.27106,7.40741 -9.28104,8.37677 -15.06696,2.46954 -0.32181,-3.08618 -1.03177,-5.82361 -0.84833,-8.49982 0.33243,-4.84863 1.19739,-9.66067 1.84128,-14.50039 0.001,-0.0124 0.009,-0.0359 0.23895,-0.34147 2.22825,-6.02868 3.72001,-11.99929 6.36127,-17.40872 2.93213,-6.00506 6.91312,-11.49798 10.39789,-17.24579 -0.0396,-0.0319 0.0442,0.0211 0.35379,-0.10128 16.90399,-17.81507 37.30103,-25.34974 61.54715,-25.08304 50.42114,0.55463 100.85193,0.22812 151.27875,0.27389 7.15521,0.007 14.31067,0.12116 21.46557,0.0878 4.47217,-0.0208 6.26441,2.36582 6.3346,6.53497 0.0223,1.32215 0.12127,2.64301 0.01,4.30097 -8.87371,27.83716 -29.54022,34.72443 -55.11804,31.57095 -0.54016,1.1847 -0.75683,1.46652 -0.7948,1.77063 -3.29645,26.41843 -6.78143,52.81559 -9.77862,79.2681 -1.53583,13.55524 -1.12104,27.06018 6.86328,39.01129 5.02447,7.52075 11.35895,13.44232 20.75317,15.03089 0.76294,0.13818 1.52582,0.27642 3.0094,0.55578 7.56073,1.14606 14.08063,0.26349 20.16968,-3.15857 0,0 -0.0212,-0.017 -0.007,-0.002 z"
   id="path53"
   inkscape:label="pilogo"
   style="display:inline;fill:#ffffff;fill-opacity:1" /><path
   style="display:inline;fill:#000000;fill-opacity:0;stroke:#303030;stroke-width:31.0136;stroke-linecap:round;stroke-dasharray:none;stroke-opacity:1"
   id="path92-3"
   d="M 85.736649,323.41928 A 204.02177,221.10153 0 0 1 230.62723,111.80769"
   sodipodi:type="arc"
   sodipodi:arc-type="arc"
   sodipodi:start="3.1415927"
   sodipodi:end="4.418342"
   sodipodi:ry="221.10153"
   sodipodi:rx="204.02177"
   sodipodi:cy="323.41928"
   sodipodi:cx="289.75842"
   sodipodi:open="true"
   inkscape:label="l_black_spacer" /><path
   style="display:inline;fill:#000000;fill-opacity:0;stroke:#303030;stroke-width:27.2176;stroke-linecap:round;stroke-dasharray:none;stroke-opacity:1"
   id="path92-3-6"
   d="m -502.16183,322.26273 a 169.09549,205.46112 0 0 1 120.0869,-196.64248"
   sodipodi:type="arc"
   sodipodi:arc-type="arc"
   sodipodi:start="3.1415927"
   sodipodi:end="4.418342"
   sodipodi:ry="205.46112"
   sodipodi:rx="169.09549"
   sodipodi:cy="322.26273"
   sodipodi:cx="-333.06635"
   sodipodi:open="true"
   transform="scale(-1,1)"
   inkscape:label="r_black_spacer" /><path
   style="display:inline;fill:none;fill-opacity:1;stroke:#ffffff;stroke-width:40;stroke-linecap:round;stroke-linejoin:round;stroke-dasharray:none;stroke-opacity:1;paint-order:stroke fill markers"
   id="path92"
   d="M 414.21613,109.9444 A 238.43224,238.43224 0 0 1 525.30785,378.14358 238.43224,238.43224 0 0 1 295,554.86501 238.43224,238.43224 0 0 1 64.692145,378.14357 238.43224,238.43224 0 0 1 175.78388,109.9444"
   sodipodi:type="arc"
   sodipodi:arc-type="arc"
   sodipodi:open="true"
   sodipodi:start="5.2359878"
   sodipodi:end="4.1887902"
   sodipodi:ry="238.43224"
   sodipodi:rx="238.43224"
   sodipodi:cy="316.43277"
   sodipodi:cx="295"
   inkscape:label="grill_body" /></svg>
